<?xml version="1.0" encoding="UTF-8" standalone="no"?>
<!-- Created with Inkscape (http://www.inkscape.org/) -->

<svg
   xmlns:dc="http://purl.org/dc/elements/1.1/"
   xmlns:cc="http://creativecommons.org/ns#"
   xmlns:rdf="http://www.w3.org/1999/02/22-rdf-syntax-ns#"
   xmlns:svg="http://www.w3.org/2000/svg"
   xmlns="http://www.w3.org/2000/svg"
   xmlns:sodipodi="http://sodipodi.sourceforge.net/DTD/sodipodi-0.dtd"
   xmlns:inkscape="http://www.inkscape.org/namespaces/inkscape"
   width="300"
   height="50"
   viewBox="0 0 299.99999 50.000001"
   id="svg5664"
   version="1.1"
   inkscape:version="0.91 r13725"
   sodipodi:docname="eat-logo.svg">
  <defs
     id="defs5666" />
  <sodipodi:namedview
     id="base"
     pagecolor="#ffffff"
     bordercolor="#666666"
     borderopacity="1.0"
     inkscape:pageopacity="0.0"
     inkscape:pageshadow="2"
     inkscape:zoom="0.83527131"
     inkscape:cx="-84.930655"
     inkscape:cy="-148.79874"
     inkscape:document-units="px"
     inkscape:current-layer="layer1"
     showgrid="false"
     units="px"
     inkscape:window-width="1920"
     inkscape:window-height="1017"
     inkscape:window-x="1912"
     inkscape:window-y="-8"
     inkscape:window-maximized="1"
     showguides="false">
    <inkscape:grid
       type="xygrid"
       id="grid4139" />
  </sodipodi:namedview>
  <metadata
     id="metadata5669">
    <rdf:RDF>
      <cc:Work
         rdf:about="">
        <dc:format>image/svg+xml</dc:format>
        <dc:type
           rdf:resource="http://purl.org/dc/dcmitype/StillImage" />
        <dc:title></dc:title>
      </cc:Work>
    </rdf:RDF>
  </metadata>
  <g
     inkscape:label="Layer 1"
     inkscape:groupmode="layer"
     id="layer1"
     transform="translate(0,-1002.3622)">
    <g
       transform="scale(0.99911488,1.0008859)"
       style="font-style:normal;font-variant:normal;font-weight:300;font-stretch:normal;font-size:21.71372414px;line-height:110.00000238%;font-family:Montserrat;-inkscape-font-specification:'Montserrat, Light';text-align:start;letter-spacing:0px;word-spacing:0px;writing-mode:lr-tb;text-anchor:start;opacity:1;fill:#ffffff;fill-opacity:1;stroke:#ffffff;stroke-width:1px;stroke-linecap:butt;stroke-linejoin:miter;stroke-opacity:1"
       id="text4489-9">
      <path
         id="path4215-8"
         style="color:#000000;font-style:normal;font-variant:normal;font-weight:300;font-stretch:normal;font-size:21.71372414px;line-height:110.00000238%;font-family:Montserrat;-inkscape-font-specification:'Montserrat, Light';text-indent:0;text-align:start;text-decoration:none;text-decoration-line:none;text-decoration-style:solid;text-decoration-color:#000000;letter-spacing:0px;word-spacing:0px;text-transform:none;direction:ltr;block-progression:tb;writing-mode:lr-tb;baseline-shift:baseline;text-anchor:start;white-space:normal;clip-rule:nonzero;display:inline;overflow:visible;visibility:visible;opacity:1;isolation:auto;mix-blend-mode:normal;color-interpolation:sRGB;color-interpolation-filters:linearRGB;solid-color:#000000;solid-opacity:1;fill:#ffffff;fill-opacity:1;fill-rule:nonzero;stroke:none;stroke-width:1px;stroke-linecap:butt;stroke-linejoin:miter;stroke-miterlimit:4;stroke-dasharray:none;stroke-dashoffset:0;stroke-opacity:1;color-rendering:auto;image-rendering:auto;shape-rendering:auto;text-rendering:auto;enable-background:accumulate"
         d="m 257.94531,1031.2129 0,2.8008 -1.65039,0 0,1.7812 1.65039,0 0,6.6211 c 0,1.1388 0.25288,2.0574 0.79492,2.7031 0.54084,0.6444 1.35721,0.9562 2.26758,0.9454 0.96577,-5e-4 1.87056,-0.3478 2.65235,-0.8926 l 0.3457,-0.2403 -0.78125,-1.6601 -0.48633,0.3437 c -0.51325,0.3612 -1.0939,0.5606 -1.62305,0.5606 l -0.004,0 -0.006,0 c -0.4735,0.01 -0.73007,-0.1129 -0.93555,-0.3789 -0.20548,-0.2661 -0.35742,-0.7502 -0.35742,-1.4883 l 0,-6.5137 3.84375,0 0,-1.7812 -3.84375,0 0,-2.8008 -1.86719,0 z m 1.55664,13.25 c 0.0687,0.076 0.19603,0.058 0.27539,0.1211 -0.0703,-0.06 -0.21014,-0.034 -0.27148,-0.1074 -0.002,0 -0.002,-0.011 -0.004,-0.014 z m 1.61914,0.7109 c 0.002,0 0.002,0 0.004,0 l -0.01,0 c 0.002,0 0.004,0 0.006,0 z m -8.03906,-15.4824 c -0.69325,0 -1.26172,0.5823 -1.26172,1.2832 0,0.71 0.56847,1.3027 1.26172,1.3027 0.69325,0 1.25977,-0.5927 1.25977,-1.3027 0,-0.7009 -0.56652,-1.2832 -1.25977,-1.2832 z m 0,1 c 0.13187,0 0.25977,0.1156 0.25977,0.2832 0,0.202 -0.1279,0.3027 -0.25977,0.3027 -0.13187,0 -0.26172,-0.1007 -0.26172,-0.3027 0,-0.1676 0.12985,-0.2832 0.26172,-0.2832 z m -0.95703,3.0391 0,0.5 0,11.8125 1.89062,0 0,-12.3125 -1.89062,0 z m -11.85156,-4.7989 0,17.1114 1.91211,0 0,-3.6192 2.30859,-2.375 4.25195,5.9942 0.25782,0 2.00195,0 -5.1543,-7.3731 4.81641,-4.9394 -2.50195,0 -5.98047,5.9804 0,-10.7793 -1.91211,0 z m -5.63867,0 0,0.5 0,16.6114 1.91015,0 0,-17.1114 -1.91015,0 z m -8.47657,4.7774 c -3.45687,0 -6.08008,2.6083 -6.08008,6.168 0,3.5798 2.62321,6.1875 6.08008,6.1875 3.47696,0 6.08008,-2.6099 6.08008,-6.1875 0,-3.5575 -2.60312,-6.168 -6.08008,-6.168 z m 0,1.8691 c 2.4952,0 4.18946,1.7068 4.18946,4.2989 0,2.6389 -1.69427,4.3418 -4.18946,4.3418 -2.47156,0 -4.1914,-1.7054 -4.1914,-4.3418 0,-2.5895 1.71983,-4.2989 4.1914,-4.2989 z m -13.23242,-1.8691 c -3.45686,0 -6.08008,2.6083 -6.08008,6.168 0,3.5798 2.62322,6.1875 6.08008,6.1875 3.47697,0 6.08008,-2.6099 6.08008,-6.1875 0,-3.5575 -2.60311,-6.168 -6.08008,-6.168 z m 0,1.8691 c 2.49521,0 4.19141,1.7068 4.19141,4.2989 0,2.6389 -1.69621,4.3418 -4.19141,4.3418 -2.47152,0 -4.18945,-1.7054 -4.18945,-4.3418 0,-2.5895 1.71791,-4.2989 4.18945,-4.2989 z m -16.82812,-5.7129 0,0.5 0,1.3907 5.125,0 0,14.2871 1.91211,0 0,-14.2871 5.12304,0 0,-1.8907 -12.16015,0 z m -12.20118,1.3477 0,2.8008 -1.65039,0 0,1.7812 1.65039,0 0,6.6211 c 0,1.1388 0.25484,2.0574 0.79688,2.7031 0.54084,0.6444 1.35721,0.9562 2.26758,0.9454 0.96578,-5e-4 1.86861,-0.3478 2.65039,-0.8926 l 0.34765,-0.2403 -0.78125,-1.6601 -0.48632,0.3437 c -0.51325,0.3612 -1.09389,0.5606 -1.62305,0.5606 l -0.006,0 -0.004,0 c -0.47349,0.01 -0.73006,-0.1129 -0.93554,-0.3789 -0.20548,-0.2661 -0.35743,-0.7502 -0.35743,-1.4883 l 0,-6.5137 3.84376,0 0,-1.7812 -3.84376,0 0,-2.8008 -1.86914,0 z m 1.5586,13.25 c 0.0687,0.076 0.19602,0.058 0.27539,0.1211 -0.0703,-0.06 -0.21014,-0.034 -0.27149,-0.1074 -0.002,0 -0.002,-0.011 -0.004,-0.014 z m 1.61914,0.7109 c 0.002,0 0.002,0 0.004,0 l -0.01,0 c 0.002,0 0.004,0 0.006,0 z m -11.6211,-11.4648 c -1.80821,0.034 -3.13318,0.8656 -4.11523,2.0566 l 0,-2.0351 -1.91211,0 0,12.3125 1.91211,0 0,-6.586 c 0.0906,-1.2086 0.49894,-2.1392 1.15234,-2.7832 0.65218,-0.6427 1.5657,-1.0194 2.76368,-1.0508 1.05886,0 1.83279,0.3035 2.35547,0.8262 0.52417,0.5242 0.82812,1.2997 0.82812,2.3633 l 0,7.2305 1.91211,0 0,-7.4043 c 0,-1.4773 -0.44438,-2.7289 -1.30273,-3.5996 -0.85836,-0.8708 -2.10411,-1.3301 -3.58399,-1.3301 l -0.004,0 -0.006,0 z m 1.62696,1.2598 c 0.49912,0.1763 0.9203,0.433 1.2539,0.7714 0.32644,0.3312 0.5807,0.7443 0.75391,1.2344 -0.18624,-0.4666 -0.43075,-0.8917 -0.77148,-1.2324 -0.34175,-0.3418 -0.76804,-0.5871 -1.23633,-0.7734 z m -6.6543,2.1679 0.50977,0.1 c -0.25896,0.5305 -0.42373,1.1253 -0.50977,1.7735 l 0,-1.8731 z m -9.00781,-3.4277 c -3.43909,0 -6.01563,2.6341 -6.01563,6.1894 0,3.5554 2.57881,6.1661 6.01563,6.1661 1.92673,0 3.61214,-0.726 4.75391,-1.9629 l 0.30664,-0.3321 -1.18946,-1.3398 -0.375,0.4101 c -0.80737,0.8843 -2.03352,1.4004 -3.45312,1.4004 -2.21059,0 -3.73366,-1.3964 -4.05664,-3.6035 l 9.75976,0 0.008,-0.4902 c 0.0344,-1.8453 -0.47627,-3.456 -1.47852,-4.6113 -1.00225,-1.1554 -2.49228,-1.8262 -4.27539,-1.8262 z m 0,1.8262 c 1.17992,0 2.10197,0.3844 2.76758,1.0429 0.55402,0.5481 0.88412,1.339 1.04297,2.2559 l -7.7793,0 c 0.39467,-2.0078 1.85317,-3.2988 3.96875,-3.2988 z m -21.54688,-1.8262 c -1.69311,0.033 -3.0859,0.6582 -4.05078,1.7558 l 0,-1.7343 -1.89062,0 0,12.3125 1.89062,0 0,-6.0371 c 0,-1.3859 0.37314,-2.4612 1.01758,-3.1954 0.64325,-0.7327 1.56714,-1.1561 2.80859,-1.1875 1.02464,0 1.78242,0.3011 2.29883,0.8243 0.51757,0.5243 0.82227,1.3016 0.82227,2.3652 l 0,7.2305 1.89062,0 0,-6.0371 c 0,-1.3871 0.36868,-2.4638 1.00782,-3.1973 0.63795,-0.7321 1.55548,-1.1542 2.79687,-1.1856 1.0364,0 1.79148,0.3001 2.30469,0.8223 0.51435,0.5234 0.81445,1.3021 0.81445,2.3672 l 0,7.2305 1.89063,0 0,-7.4043 c 0,-1.4746 -0.43035,-2.7235 -1.27149,-3.5957 -0.84114,-0.8722 -2.06756,-1.334 -3.52734,-1.334 l -0.004,0 -0.006,0 c -2.03452,0.038 -3.61145,0.9592 -4.54101,2.5293 -0.27964,-0.607 -0.63541,-1.154 -1.14063,-1.5547 -0.80914,-0.6418 -1.87465,-0.9746 -3.10351,-0.9746 l -0.004,0 -0.004,0 z m 10.39258,1.2617 c 0.48503,0.1755 0.89244,0.4293 1.2168,0.7656 0.10175,0.1055 0.14897,0.2708 0.23633,0.3926 -0.0899,-0.1195 -0.13174,-0.2783 -0.23633,-0.3848 -0.33574,-0.3416 -0.75617,-0.5865 -1.2168,-0.7734 z m -8.17383,0.4141 c 0.0716,0.048 0.20509,0.029 0.27149,0.082 0.0405,0.032 0.0413,0.1066 0.0801,0.1406 -0.10408,-0.091 -0.23682,-0.1447 -0.35157,-0.2226 z m -7.16015,1.8398 0.5039,0.094 c -0.26859,0.5805 -0.43278,1.2287 -0.5039,1.9472 l 0,-2.041 z m 8.69922,0.7344 0.18554,0.9765 c -0.0155,0.1071 -0.036,0.2104 -0.0469,0.3204 l 0,-0.4434 c 0,-0.311 -0.0928,-0.5679 -0.13867,-0.8535 z m -16.02735,-4.25 c -1.0713,0 -2.09471,0.2264 -2.88867,0.7695 -0.79396,0.5431 -1.32617,1.4416 -1.32617,2.5742 0,1.1151 0.53035,1.9449 1.24805,2.4727 0.71769,0.5278 1.59772,0.8153 2.43554,1.0781 0.83783,0.2629 1.6386,0.5033 2.16407,0.8223 0.52265,0.3173 0.76606,0.6127 0.75195,1.2304 -0.0263,0.5593 -0.26311,0.8964 -0.69922,1.1641 -0.43697,0.2682 -1.09007,0.4199 -1.81641,0.4199 -1.3119,0 -2.56111,-0.4808 -3.4375,-1.2988 l -0.45312,-0.4238 -0.9336,1.5703 0.28711,0.2754 c 1.14964,1.1018 2.79033,1.7012 4.49414,1.7012 1.09679,0 2.1714,-0.2427 3.01172,-0.8165 0.84033,-0.5738 1.41797,-1.52 1.41797,-2.7226 0,-1.1365 -0.5181,-1.9818 -1.23047,-2.5215 -0.71236,-0.5397 -1.58816,-0.8283 -2.42383,-1.084 -0.83566,-0.2556 -1.63763,-0.4806 -2.16992,-0.7812 -0.53229,-0.3006 -0.77734,-0.5714 -0.77734,-1.1504 0,-0.5199 0.19294,-0.8119 0.58398,-1.0586 0.39104,-0.2468 1.00965,-0.3945 1.73828,-0.3945 0.99236,0 1.90123,0.2796 2.59766,0.7246 l 0.45703,0.291 0.25391,-0.4785 0.61133,-1.1543 -0.40235,-0.2461 c -0.96354,-0.5875 -2.14277,-0.9629 -3.49414,-0.9629 z m 2.36719,7.0683 c 0.0139,0.01 0.0411,0.013 0.0547,0.024 0.0768,0.058 0.11247,0.1391 0.17968,0.2012 -0.0791,-0.075 -0.14741,-0.1593 -0.23437,-0.2247 z m -11.86719,-7.0683 c -1.0713,0 -2.09471,0.2264 -2.88867,0.7695 -0.79396,0.5431 -1.32422,1.4416 -1.32422,2.5742 0,1.1151 0.5284,1.9449 1.2461,2.4727 0.71769,0.5278 1.59772,0.8153 2.43554,1.0781 0.83783,0.2629 1.6386,0.5033 2.16407,0.8223 0.52398,0.3181 0.76742,0.6134 0.75195,1.2344 -0.0276,0.556 -0.26255,0.8933 -0.69727,1.1601 -0.43697,0.2682 -1.09202,0.4199 -1.81836,0.4199 -1.3119,0 -2.5611,-0.4808 -3.4375,-1.2988 l -0.45312,-0.4238 -0.9336,1.5703 0.28711,0.2754 c 1.14964,1.1018 2.79033,1.7012 4.49414,1.7012 1.09679,0 2.1714,-0.2427 3.01172,-0.8165 0.84033,-0.5738 1.41797,-1.52 1.41797,-2.7226 0,-1.1365 -0.51615,-1.9818 -1.22851,-2.5215 -0.71237,-0.5397 -1.59012,-0.8283 -2.42579,-1.084 -0.83566,-0.2556 -1.63762,-0.4806 -2.16992,-0.7812 -0.53229,-0.3006 -0.77734,-0.5714 -0.77734,-1.1504 0,-0.5199 0.19294,-0.8119 0.58398,-1.0586 0.39105,-0.2468 1.01161,-0.3945 1.74024,-0.3945 0.99234,0 1.89928,0.2796 2.5957,0.7246 l 0.45703,0.291 0.25391,-0.4785 0.61133,-1.1543 -0.40235,-0.2461 c -0.96355,-0.5875 -2.14276,-0.9629 -3.49414,-0.9629 z m 2.36719,7.0683 c 0.0139,0.01 0.0411,0.013 0.0547,0.024 0.0782,0.059 0.11529,0.1417 0.18359,0.2051 -0.0803,-0.077 -0.14984,-0.1621 -0.23828,-0.2286 z m -13.54687,-7.0683 c -3.43909,0 -6.01563,2.6341 -6.01563,6.1894 0,3.5554 2.57881,6.1661 6.01563,6.1661 1.92673,0 3.61214,-0.726 4.7539,-1.9629 l 0.30664,-0.3321 -1.1914,-1.3398 -0.37305,0.4101 c -0.80737,0.8843 -2.03352,1.4004 -3.45313,1.4004 -2.21058,0 -3.73365,-1.3964 -4.05664,-3.6035 l 9.75977,0 0.008,-0.4902 c 0.0344,-1.8453 -0.47626,-3.456 -1.47851,-4.6113 -1.00226,-1.1554 -2.49229,-1.8262 -4.27539,-1.8262 z m 0,1.8262 c 1.17991,0 2.10197,0.3844 2.76757,1.0429 0.554,0.5481 0.88215,1.3391 1.04102,2.2559 l -7.77735,0 c 0.39468,-2.0078 1.85317,-3.2988 3.96876,-3.2988 z m -11.128911,-1.8262 c -1.0713,0 -2.092761,0.2264 -2.886719,0.7695 -0.793958,0.5431 -1.326172,1.4416 -1.326172,2.5742 0,1.1151 0.530356,1.9449 1.248047,2.4727 0.717691,0.5278 1.597723,0.8153 2.435547,1.0781 0.837824,0.2629 1.6386,0.5033 2.164062,0.8223 0.522659,0.3173 0.766068,0.6127 0.751954,1.2304 -0.0263,0.5593 -0.263114,0.8964 -0.699219,1.1641 -0.436967,0.2682 -1.090066,0.4199 -1.816407,0.4199 -1.3119,0 -2.561103,-0.4808 -3.4375,-1.2988 l -0.455078,-0.4238 -0.93164,1.5703 0.287109,0.2754 c 1.14964,1.1018 2.788376,1.7012 4.492188,1.7012 1.096787,0 2.173347,-0.2427 3.013671,-0.8165 0.840325,-0.5738 1.417968,-1.52 1.417968,-2.7226 0,-1.1365 -0.518103,-1.9818 -1.230468,-2.5215 -0.712364,-0.5397 -1.588159,-0.8283 -2.423828,-1.084 -0.835668,-0.2556 -1.63763,-0.4806 -2.169922,-0.7812 -0.532291,-0.3006 -0.777343,-0.5714 -0.777343,-1.1504 0,-0.5199 0.192943,-0.8119 0.583984,-1.0586 0.391041,-0.2468 1.009648,-0.3945 1.738281,-0.3945 0.992351,0 1.901228,0.2796 2.597657,0.7246 l 0.457031,0.291 0.253906,-0.4785 0.611328,-1.1543 -0.402344,-0.2461 c -0.963546,-0.5875 -2.144722,-0.9629 -3.496093,-0.9629 z m 2.365234,7.0664 c 0.01492,0.011 0.04405,0.014 0.05859,0.025 0.07955,0.06 0.116277,0.1445 0.185547,0.209 -0.08207,-0.079 -0.15352,-0.1665 -0.244141,-0.2344 z m -11.865234,-7.0664 c -1.0713,0 -2.092761,0.2264 -2.886719,0.7695 -0.793958,0.5431 -1.326172,1.4416 -1.326172,2.5742 0,1.1151 0.530356,1.9449 1.248047,2.4727 0.717691,0.5278 1.597723,0.8153 2.435547,1.0781 0.837824,0.2629 1.638601,0.5033 2.164062,0.8223 0.522659,0.3173 0.766068,0.6127 0.751954,1.2304 -0.0263,0.5593 -0.263114,0.8964 -0.699219,1.1641 -0.436967,0.2682 -1.090066,0.4199 -1.816407,0.4199 -1.3119,0 -2.561103,-0.4808 -3.4375,-1.2988 l -0.455078,-0.4238 -0.93164,1.5703 0.287109,0.2754 c 1.14964,1.1018 2.788376,1.7012 4.492188,1.7012 1.096787,0 2.173347,-0.2427 3.013671,-0.8165 0.840325,-0.5738 1.417969,-1.52 1.417969,-2.7226 0,-1.1365 -0.518104,-1.9818 -1.230469,-2.5215 -0.712364,-0.5397 -1.588159,-0.8283 -2.423828,-1.084 -0.835668,-0.2556 -1.63763,-0.4806 -2.169922,-0.7812 -0.532291,-0.3006 -0.777343,-0.5714 -0.777343,-1.1504 0,-0.5199 0.192943,-0.8119 0.583984,-1.0586 0.391041,-0.2468 1.009648,-0.3945 1.738281,-0.3945 0.992351,0 1.901228,0.2796 2.597657,0.7246 l 0.457031,0.291 0.253906,-0.4785 0.611328,-1.1543 -0.402344,-0.2461 c -0.963546,-0.5875 -2.144722,-0.9629 -3.496093,-0.9629 z m 2.36914,7.0683 c 0.01388,0.01 0.04114,0.013 0.05469,0.024 0.07678,0.058 0.112474,0.1391 0.179687,0.2012 -0.07909,-0.075 -0.147417,-0.1593 -0.234375,-0.2247 z m -15.703125,-10.9121 -7.335937,16.1778 2.095703,0 1.955078,-4.3203 8.236328,0 1.976563,4.3203 0.322265,0 1.777344,0 -7.40625,-16.1778 -1.621094,0 z m 0.802735,2.752 3.28125,7.1933 -6.527344,0 3.246094,-7.1933 z m 122.265621,-25.291 0,2.8008 -1.65039,0 0,1.7832 1.65039,0 0,6.621 c 0,1.1389 0.25288,2.0574 0.79493,2.7032 0.54083,0.6443 1.3572,0.9561 2.26757,0.9453 0.96577,-5e-4 1.87056,-0.3477 2.65235,-0.8926 l 0.3457,-0.2422 -0.78125,-1.6582 -0.48633,0.3438 c -0.51325,0.3612 -1.09388,0.5586 -1.62304,0.5586 l -0.004,0 -0.006,0 c -0.4735,0.01 -0.73007,-0.1128 -0.93555,-0.3789 -0.20548,-0.266 -0.35742,-0.7502 -0.35742,-1.4883 l 0,-6.5136 3.84375,0 0,-1.7832 -3.84375,0 0,-2.8008 -1.86719,0 z m 1.55664,13.2519 c 0.0624,0.069 0.17882,0.051 0.25,0.1094 -0.0629,-0.055 -0.19049,-0.031 -0.24609,-0.098 -0.002,0 -0.002,-0.01 -0.004,-0.012 z m 1.61914,0.709 c 0.002,0 0.002,0 0.004,0 l -0.01,0 c 0.002,0 0.004,0 0.006,0 z m -11.61914,-11.4629 c -1.80845,0.034 -3.13514,0.8654 -4.11718,2.0567 l 0,-2.0352 -1.91211,0 0,12.3125 1.91211,0 0,-6.5859 c 0.0906,-1.2087 0.49893,-2.1393 1.15234,-2.7832 0.65217,-0.6428 1.5657,-1.0195 2.76367,-1.0508 1.05886,0 1.8328,0.3035 2.35547,0.8262 0.52417,0.5241 0.82813,1.2997 0.82813,2.3632 l 0,7.2305 1.91211,0 0,-7.4043 c 0,-1.4772 -0.44439,-2.7289 -1.30274,-3.5996 -0.85835,-0.8708 -2.10411,-1.3301 -3.58398,-1.3301 l -0.004,0 -0.004,0 z m 1.625,1.2598 c 0.49913,0.1763 0.92031,0.433 1.25391,0.7715 0.32643,0.3311 0.5807,0.7443 0.75391,1.2343 -0.18624,-0.4665 -0.43076,-0.8916 -0.77149,-1.2324 -0.34175,-0.3417 -0.76804,-0.5871 -1.23633,-0.7734 z m -6.65429,2.168 0.51172,0.1 c -0.25927,0.531 -0.42576,1.1264 -0.51172,1.7754 l 0,-1.875 z m -9.00781,-3.4278 c -3.4391,0 -6.01563,2.6342 -6.01563,6.1895 0,3.5553 2.5788,6.166 6.01563,6.166 1.92672,0 3.61214,-0.726 4.7539,-1.9629 l 0.30664,-0.332 -1.18945,-1.3399 -0.375,0.4102 c -0.80737,0.8842 -2.03352,1.4004 -3.45313,1.4004 -2.21058,0 -3.73365,-1.3965 -4.05664,-3.6035 l 9.75977,0 0.01,-0.4903 c 0.0344,-1.8453 -0.47821,-3.4579 -1.48046,-4.6133 -1.00226,-1.1553 -2.49229,-1.8242 -4.27539,-1.8242 z m 0,1.8242 c 1.17991,0 2.10197,0.3865 2.76757,1.045 0.55403,0.5481 0.88412,1.3389 1.04297,2.2558 l -7.7793,0 c 0.39469,-2.0078 1.85317,-3.3008 3.96876,-3.3008 z M 152,1009.8242 c -1.6932,0.033 -3.0859,0.6581 -4.05078,1.7559 l 0,-1.7344 -1.89063,0 0,12.3125 1.89063,0 0,-6.0371 c 0,-1.3859 0.37314,-2.4612 1.01758,-3.1953 0.64325,-0.7328 1.56714,-1.1562 2.80859,-1.1875 1.02464,0 1.78242,0.301 2.29883,0.8242 0.51757,0.5243 0.82226,1.3017 0.82226,2.3652 l 0,7.2305 1.89063,0 0,-6.0371 c 0,-1.3871 0.36867,-2.4638 1.00781,-3.1973 0.63796,-0.7321 1.55549,-1.1542 2.79688,-1.1855 1.0364,0 1.79147,0.3001 2.30468,0.8222 0.51436,0.5234 0.81641,1.3021 0.81641,2.3672 l 0,7.2305 1.88867,0 0,-7.4043 c 0,-1.4746 -0.43035,-2.7235 -1.27148,-3.5957 -0.84114,-0.8722 -2.06757,-1.334 -3.52735,-1.334 l -0.004,0 -0.006,0 c -2.03494,0.038 -3.61154,0.9586 -4.54102,2.5293 -0.27963,-0.6069 -0.63345,-1.154 -1.13867,-1.5547 -0.80914,-0.6417 -1.87465,-0.9746 -3.10351,-0.9746 l -0.006,0 -0.004,0 z m 10.39258,1.2617 c 0.48502,0.1755 0.89439,0.4293 1.21875,0.7657 0.10025,0.1039 0.14613,0.2669 0.23242,0.3867 -0.0888,-0.1175 -0.12939,-0.2741 -0.23242,-0.3789 -0.33577,-0.3417 -0.75807,-0.5866 -1.21875,-0.7735 z m -8.17383,0.4141 c 0.0716,0.048 0.20504,0.029 0.27148,0.082 0.0405,0.032 0.0413,0.1066 0.0801,0.1407 -0.10407,-0.091 -0.23682,-0.1448 -0.35156,-0.2227 z m -7.16016,1.8398 0.50586,0.094 c -0.2683,0.58 -0.43468,1.2275 -0.50586,1.9453 l 0,-2.0391 z m 8.68946,0.6758 0.19531,1.0332 c -0.0157,0.1077 -0.0359,0.2116 -0.0469,0.3223 l 0,-0.4434 c 0,-0.3324 -0.0961,-0.6089 -0.14843,-0.9121 z m -17.74219,-4.1914 c -1.80822,0.034 -3.13318,0.8657 -4.11524,2.0567 l 0,-2.0352 -1.9121,0 0,12.3125 1.9121,0 0,-6.5937 c 0.092,-1.2044 0.49859,-2.133 1.1504,-2.7754 0.65217,-0.6428 1.5657,-1.0195 2.76367,-1.0508 1.05999,0 1.83439,0.3031 2.35742,0.8262 0.52417,0.5241 0.82812,1.2997 0.82812,2.3632 l 0,7.2305 1.91211,0 0,-7.4043 c 0,-1.4772 -0.44438,-2.7289 -1.30273,-3.5996 -0.85835,-0.8708 -2.10411,-1.3301 -3.58399,-1.3301 l -0.004,0 -0.006,0 z m 1.62695,1.2598 c 0.49912,0.1763 0.92031,0.433 1.25391,0.7715 0.32643,0.3311 0.58069,0.7443 0.7539,1.2343 -0.18623,-0.4665 -0.43075,-0.8916 -0.77148,-1.2324 -0.34175,-0.3417 -0.76804,-0.5871 -1.23633,-0.7734 z m -6.65429,2.168 0.50976,0.1 c -0.25895,0.5304 -0.42372,1.1253 -0.50976,1.7734 l 0,-1.873 z m -9.36719,-3.4278 c -3.45688,0 -6.08008,2.6064 -6.08008,6.166 0,3.5799 2.6232,6.1895 6.08008,6.1895 3.47696,0 6.08008,-2.6118 6.08008,-6.1895 0,-3.5575 -2.60312,-6.166 -6.08008,-6.166 z m 0,1.8692 c 2.49519,0 4.18945,1.7048 4.18945,4.2968 0,2.639 -1.69427,4.3438 -4.18945,4.3438 -2.47155,0 -4.18945,-1.7074 -4.18945,-4.3438 0,-2.5894 1.71789,-4.2968 4.18945,-4.2968 z m -6.33203,-1.8809 -0.50977,0.012 c -1.59635,0.034 -2.79012,0.83 -3.70117,1.9434 l 0,-1.9219 -1.91211,0 0,12.3125 1.91211,0 0,-6.5957 c 0.0927,-1.2204 0.48467,-2.1668 1.10156,-2.8047 0.61874,-0.6398 1.47099,-1 2.60938,-1 l 0.5,0 0,-1.9453 z m -5.12305,3.3945 0.50781,0.096 c -0.25464,0.5368 -0.42118,1.1383 -0.50781,1.7969 l 0,-1.8926 z m -5.47266,-7.4004 c -0.69324,0 -1.25976,0.5803 -1.25976,1.2813 0,0.71 0.56652,1.3047 1.25976,1.3047 0.69325,0 1.25977,-0.5947 1.25977,-1.3047 0,-0.701 -0.56652,-1.2813 -1.25977,-1.2813 z m 0,1 c 0.13188,0 0.25977,0.1136 0.25977,0.2813 0,0.202 -0.12789,0.3047 -0.25977,0.3047 -0.13187,0 -0.25976,-0.1027 -0.25976,-0.3047 0,-0.1677 0.12789,-0.2813 0.25976,-0.2813 z m -0.95703,3.0391 0,0.5 0,11.8125 1.89063,0 0,-12.3125 -1.89063,0 z m -12.546872,0 0.279296,0.6875 4.707032,11.625 1.609375,0 4.962889,-12.3125 -2.03711,0 -3.720701,9.4707 -3.742188,-9.4707 -2.058593,0 z m -5.132813,-0.021 c -1.808457,0.034 -3.133186,0.8654 -4.115234,2.0567 l 0,-2.0352 -1.91211,0 0,12.3125 1.91211,0 0,-6.5859 c 0.09065,-1.2087 0.498935,-2.1393 1.152343,-2.7832 0.652174,-0.6428 1.565697,-1.0195 2.763672,-1.0508 1.058865,0 1.832796,0.3035 2.355469,0.8262 0.524173,0.5241 0.828125,1.2997 0.828125,2.3632 l 0,7.2305 1.912109,0 0,-7.4043 c 0,-1.4772 -0.444384,-2.7289 -1.302734,-3.5996 -0.85835,-0.8708 -2.10411,-1.3301 -3.583984,-1.3301 l -0.0039,0 -0.0059,0 z m 1.626953,1.2598 c 0.499123,0.1763 0.920306,0.433 1.253906,0.7715 0.326431,0.3311 0.580696,0.7443 0.753907,1.2343 -0.186236,-0.4665 -0.430754,-0.8916 -0.771485,-1.2324 -0.341749,-0.3417 -0.768041,-0.5871 -1.236328,-0.7734 z m -6.654297,2.168 0.511719,0.1 c -0.259268,0.531 -0.42576,1.1264 -0.511719,1.7754 l 0,-1.875 z m -14.689453,-7.2715 0,0.5 0,15.6777 11.074219,0 0,-1.8906 -9.162109,0 0,-5.4258 7.904296,0 0,-1.9121 -7.904296,0 0,-5.0586 8.880859,0 0,-1.8906 -10.792969,0 z m 194.696022,38.0426 c -0.58627,0.4126 -1.2594,0.6515 -1.91081,0.6515 -1.17254,0.022 -1.80224,-0.76 -1.80224,-2.3668 l 0,-7.0136 3.84333,0 0,-0.7817 -3.84333,0 0,-2.801 -0.86855,0 0,2.801 -1.65024,0 0,0.7817 1.65024,0 0,7.1221 c 0,2.128 0.9554,3.1702 2.56222,3.1485 0.84683,0 1.65024,-0.304 2.3668,-0.8034 l -0.34742,-0.7383 z m -9.94488,-13.8316 c -0.41256,0 -0.75998,0.3474 -0.75998,0.7817 0,0.456 0.34742,0.8034 0.75998,0.8034 0.41256,0 0.75998,-0.3474 0.75998,-0.8034 0,-0.4343 -0.34742,-0.7817 -0.75998,-0.7817 z m -0.45599,4.0388 0,11.3128 0.89026,0 0,-11.3128 -0.89026,0 z m -3.62145,11.3128 1.04226,0 -4.84216,-6.9267 4.27761,-4.3861 -1.1074,0 -6.68783,6.6878 0,-11.4866 -0.91198,0 0,16.1116 0.91198,0 0,-3.3222 2.86621,-2.9531 4.45131,6.2753 z m -13.86997,-16.1116 0,16.1116 0.91198,0 0,-16.1116 -0.91198,0 z m -8.97592,4.777 c -3.21363,0 -5.58043,2.3451 -5.58043,5.6673 0,3.3439 2.3668,5.689 5.58043,5.689 3.23534,0 5.58042,-2.3451 5.58042,-5.689 0,-3.3222 -2.34508,-5.6673 -5.58042,-5.6673 z m 0,0.8686 c 2.73593,0 4.69016,1.9759 4.69016,4.7987 0,2.8662 -1.95423,4.8422 -4.69016,4.8422 -2.71422,0 -4.69017,-1.976 -4.69017,-4.8422 0,-2.8228 1.97595,-4.7987 4.69017,-4.7987 z m -13.2318,-0.8686 c -3.21363,0 -5.58043,2.3451 -5.58043,5.6673 0,3.3439 2.3668,5.689 5.58043,5.689 3.23535,0 5.58043,-2.3451 5.58043,-5.689 0,-3.3222 -2.34508,-5.6673 -5.58043,-5.6673 z m 0,0.8686 c 2.73593,0 4.69017,1.9759 4.69017,4.7987 0,2.8662 -1.95424,4.8422 -4.69017,4.8422 -2.71421,0 -4.69016,-1.976 -4.69016,-4.8422 0,-2.8228 1.97595,-4.7987 4.69016,-4.7987 z m -16.32838,-4.7119 0,0.8903 5.12444,0 0,14.2876 0.91197,0 0,-14.2876 5.12444,0 0,-0.8903 -11.16085,0 z m -7.6188,13.6579 c -0.58627,0.4126 -1.2594,0.6515 -1.91081,0.6515 -1.17254,0.022 -1.80224,-0.76 -1.80224,-2.3668 l 0,-7.0136 3.84333,0 0,-0.7817 -3.84333,0 0,-2.801 -0.86855,0 0,2.801 -1.65024,0 0,0.7817 1.65024,0 0,7.1221 c 0,2.128 0.95541,3.1702 2.56222,3.1485 0.84684,0 1.65024,-0.304 2.3668,-0.8034 l -0.34742,-0.7383 z m -13.51544,-9.8146 c -2.25823,0.043 -3.86504,1.0423 -4.62502,2.9097 l 0,-2.8879 -0.91198,0 0,11.3128 0.91198,0 0,-6.1233 c 0.19542,-2.6056 1.80224,-4.2341 4.40788,-4.2993 2.32337,0 3.69134,1.368 3.69134,3.6914 l 0,6.7312 0.91197,0 0,-6.905 c 0,-2.7576 -1.62853,-4.4296 -4.38617,-4.4296 z m -14.04538,0 c -3.19192,0 -5.51529,2.3668 -5.51529,5.689 0,3.3222 2.32337,5.6673 5.51529,5.6673 1.80224,0 3.34391,-0.6731 4.38617,-1.8022 l -0.52113,-0.5863 c -0.91198,0.9988 -2.27994,1.5634 -3.82162,1.5634 -2.62736,0 -4.53816,-1.8457 -4.66845,-4.6033 l 9.87975,0 c 0.0651,-3.4959 -1.93252,-5.9279 -5.25472,-5.9279 z m -4.60331,5.1245 c 0.21713,-2.5622 2.0628,-4.2993 4.60331,-4.2993 2.58393,0 4.25589,1.7371 4.4296,4.2993 l -9.03291,0 z m -8.14096,-5.1245 c -2.32336,0.043 -3.93018,1.1726 -4.62502,3.2788 -0.39085,-2.0628 -1.88909,-3.2788 -4.16903,-3.2788 -2.23652,0.043 -3.82162,1.064 -4.55989,2.9965 l 0,-2.9747 -0.89026,0 0,11.3128 0.89026,0 0,-5.537 c 0,-2.9531 1.60682,-4.8204 4.32104,-4.8856 2.25822,0 3.62619,1.368 3.62619,3.6914 l 0,6.7312 0.89026,0 0,-5.537 c 0,-2.9531 1.5851,-4.8204 4.29932,-4.8856 2.27994,0 3.62619,1.368 3.62619,3.6914 l 0,6.7312 0.89026,0 0,-6.905 c 0,-2.7576 -1.5851,-4.4296 -4.29932,-4.4296 z m -18.22866,1.6286 0.39084,-0.7383 c -0.89026,-0.5428 -1.97595,-0.8903 -3.23534,-0.8903 -1.99766,0 -3.71305,0.8686 -3.71305,2.8445 0,3.8868 6.68783,2.432 6.60097,5.6239 -0.0651,1.4331 -1.4331,2.0628 -3.0182,2.0628 -1.43311,0 -2.80108,-0.5211 -3.77819,-1.4331 l -0.41256,0.6948 c 1.04226,0.9989 2.56222,1.5634 4.14732,1.5634 2.04109,0 3.93018,-0.9337 3.93018,-3.0399 0,-3.9953 -6.60097,-2.4971 -6.60097,-5.537 0,-1.3463 1.23768,-1.9542 2.82278,-1.9542 1.08569,0 2.08452,0.304 2.86622,0.8034 z m -9.49976,0 0.39085,-0.7383 c -0.89027,-0.5428 -1.97595,-0.8903 -3.23535,-0.8903 -1.99766,0 -3.71305,0.8686 -3.71305,2.8445 0,3.8868 6.68783,2.432 6.60098,5.6239 -0.0651,1.4331 -1.43311,2.0628 -3.01821,2.0628 -1.43311,0 -2.80107,-0.5211 -3.77819,-1.4331 l -0.41256,0.6948 c 1.04226,0.9989 2.56222,1.5634 4.14732,1.5634 2.04109,0 3.93019,-0.9337 3.93019,-3.0399 0,-3.9953 -6.60098,-2.4971 -6.60098,-5.537 0,-1.3463 1.23769,-1.9542 2.82279,-1.9542 1.08568,0 2.08452,0.304 2.86621,0.8034 z m -14.02367,-1.6286 c -3.19192,0 -5.51529,2.3668 -5.51529,5.689 0,3.3222 2.32337,5.6673 5.51529,5.6673 1.80224,0 3.34391,-0.6731 4.38617,-1.8022 l -0.52113,-0.5863 c -0.91198,0.9988 -2.27994,1.5634 -3.82162,1.5634 -2.62736,0 -4.53816,-1.8457 -4.66845,-4.6033 l 9.87975,0 c 0.0651,-3.4959 -1.93252,-5.9279 -5.25472,-5.9279 z m -4.60331,5.1245 c 0.21713,-2.5622 2.0628,-4.2993 4.60331,-4.2993 2.58393,0 4.25589,1.7371 4.4296,4.2993 l -9.03291,0 z m -3.680477,-3.4959 0.390847,-0.7383 c -0.890263,-0.5428 -1.975949,-0.8903 -3.235345,-0.8903 -1.997663,0 -3.713047,0.8686 -3.713047,2.8445 0,3.8868 6.687827,2.432 6.600972,5.6239 -0.06514,1.4331 -1.433106,2.0628 -3.018207,2.0628 -1.433106,0 -2.801071,-0.5211 -3.778188,-1.4331 l -0.412561,0.6948 c 1.042259,0.9989 2.562219,1.5634 4.147321,1.5634 2.04109,0 3.930184,-0.9337 3.930184,-3.0399 0,-3.9953 -6.600972,-2.4971 -6.600972,-5.537 0,-1.3463 1.237682,-1.9542 2.822784,-1.9542 1.085686,0 2.084518,0.304 2.866212,0.8034 z m -9.499755,0 0.390847,-0.7383 c -0.890263,-0.5428 -1.975949,-0.8903 -3.235345,-0.8903 -1.997663,0 -3.713047,0.8686 -3.713047,2.8445 0,3.8868 6.687827,2.432 6.600972,5.6239 -0.06514,1.4331 -1.433106,2.0628 -3.018207,2.0628 -1.433106,0 -2.801071,-0.5211 -3.778188,-1.4331 l -0.412561,0.6948 c 1.042259,0.9989 2.562219,1.5634 4.147321,1.5634 2.04109,0 3.930184,-0.9337 3.930184,-3.0399 0,-3.9953 -6.600972,-2.4971 -6.600972,-5.537 0,-1.3463 1.237682,-1.9542 2.822784,-1.9542 1.085686,0 2.084518,0.304 2.866212,0.8034 z m -8.930108,9.706 0.998831,0 -6.948392,-15.1779 -0.977117,0 -6.883251,15.1779 0.998832,0 1.954235,-4.321 8.880913,0 1.975949,4.321 z m -10.466015,-5.233 4.017039,-8.9026 4.060466,8.9026 -8.077505,0 z m 131.366005,-20.1721 c -0.58627,0.4126 -1.2594,0.6515 -1.91081,0.6515 -1.17254,0.022 -1.80224,-0.76 -1.80224,-2.3668 l 0,-7.0136 3.84333,0 0,-0.7817 -3.84333,0 0,-2.801 -0.86855,0 0,2.801 -1.65024,0 0,0.7817 1.65024,0 0,7.1221 c 0,2.128 0.9554,3.1702 2.56222,3.1485 0.84683,0 1.65024,-0.304 2.3668,-0.8034 l -0.34742,-0.7383 z m -13.51544,-9.8146 c -2.25823,0.043 -3.86504,1.0423 -4.62502,2.9097 l 0,-2.8879 -0.91198,0 0,11.3128 0.91198,0 0,-6.1233 c 0.19542,-2.6056 1.80223,-4.2341 4.40788,-4.2993 2.32337,0 3.69133,1.368 3.69133,3.6914 l 0,6.7312 0.91198,0 0,-6.905 c 0,-2.7576 -1.62853,-4.4296 -4.38617,-4.4296 z m -14.04539,0 c -3.19192,0 -5.51529,2.3668 -5.51529,5.689 0,3.3222 2.32337,5.6673 5.51529,5.6673 1.80224,0 3.34391,-0.6731 4.38617,-1.8022 l -0.52113,-0.5863 c -0.91198,0.9988 -2.27994,1.5634 -3.82162,1.5634 -2.62736,0 -4.53816,-1.8457 -4.66845,-4.6033 l 9.87975,0 c 0.0651,-3.4959 -1.93252,-5.9279 -5.25472,-5.9279 z m -4.60331,5.1245 c 0.21714,-2.5622 2.0628,-4.2993 4.60331,-4.2993 2.58393,0 4.25589,1.7371 4.4296,4.2993 l -9.03291,0 z m -8.14095,-5.1245 c -2.32337,0.043 -3.93019,1.1726 -4.62503,3.2788 -0.39085,-2.0628 -1.88909,-3.2788 -4.16903,-3.2788 -2.23652,0.043 -3.82162,1.064 -4.55989,2.9965 l 0,-2.9747 -0.89026,0 0,11.3128 0.89026,0 0,-5.537 c 0,-2.9531 1.60682,-4.8204 4.32104,-4.8856 2.25822,0 3.62619,1.368 3.62619,3.6914 l 0,6.7312 0.89026,0 0,-5.537 c 0,-2.9531 1.5851,-4.8204 4.29932,-4.8856 2.27994,0 3.62619,1.368 3.62619,3.6914 l 0,6.7312 0.89026,0 0,-6.905 c 0,-2.7576 -1.5851,-4.4296 -4.29931,-4.4296 z m -22.7872,0 c -2.25823,0.043 -3.86504,1.0423 -4.62502,2.9097 l 0,-2.8879 -0.91198,0 0,11.3128 0.91198,0 0,-6.1233 c 0.19542,-2.6056 1.80224,-4.2341 4.40788,-4.2993 2.32337,0 3.69134,1.368 3.69134,3.6914 l 0,6.7312 0.91197,0 0,-6.905 c 0,-2.7576 -1.62853,-4.4296 -4.38617,-4.4296 z m -14.40434,0 c -3.21363,0 -5.58043,2.3451 -5.58043,5.6673 0,3.3439 2.3668,5.689 5.58043,5.689 3.23535,0 5.58043,-2.3451 5.58043,-5.689 0,-3.3222 -2.34508,-5.6673 -5.58043,-5.6673 z m 0,0.8686 c 2.73593,0 4.69016,1.9759 4.69016,4.7987 0,2.8662 -1.95423,4.8422 -4.69016,4.8422 -2.71422,0 -4.69016,-1.976 -4.69016,-4.8422 0,-2.8228 1.97594,-4.7987 4.69016,-4.7987 z m -11.04381,1.9977 0,-2.8445 -0.91197,0 0,11.3128 0.91197,0 0,-6.1233 c 0.19543,-2.6273 1.71539,-4.2776 4.21247,-4.2776 l 0,-0.9337 c -2.01938,0.043 -3.49591,1.0423 -4.21247,2.8663 z m -5.88441,-6.8833 c -0.41256,0 -0.75998,0.3474 -0.75998,0.7817 0,0.456 0.34742,0.8034 0.75998,0.8034 0.41256,0 0.75998,-0.3474 0.75998,-0.8034 0,-0.4343 -0.34742,-0.7817 -0.75998,-0.7817 z m -0.45599,4.0388 0,11.3128 0.89026,0 0,-11.3128 -0.89026,0 z m -12.305237,0 4.581596,11.3128 0.93369,0 4.559881,-11.3128 -0.9554,0 -4.060469,10.3357 -4.08218,-10.3357 -0.977118,0 z m -5.864741,-0.022 c -2.258227,0.043 -3.865043,1.0423 -4.625023,2.9097 l 0,-2.8879 -0.911977,0 0,11.3128 0.911977,0 0,-6.1233 c 0.195423,-2.6056 1.802239,-4.2341 4.407886,-4.2993 2.323368,0 3.691333,1.368 3.691333,3.6914 l 0,6.7312 0.911976,0 0,-6.905 c 0,-2.7576 -1.628529,-4.4296 -4.386172,-4.4296 z m -19.227164,-3.8433 0,15.1779 10.075168,0 0,-0.8903 -9.163191,0 0,-6.4272 7.903795,0 0,-0.912 -7.903795,0 0,-6.0581 8.880913,0 0,-0.8903 -9.79289,0 z"
         inkscape:connector-curvature="0" />
    </g>
    <path
       style="fill:none;fill-opacity:0.99215686;stroke:#ffffff;stroke-width:1.56626582;stroke-linecap:round;stroke-linejoin:round;stroke-miterlimit:4;stroke-dasharray:none;stroke-dashoffset:0;stroke-opacity:1"
       d="m 32.785298,1039.9346 0,11.6178 -32.06187883,0 0,-48.2263 32.06187883,0 0,7.5735"
       id="rect30110-78-5-3-7"
       inkscape:connector-curvature="0"
       sodipodi:nodetypes="cccccc" />
    <ellipse
       style="opacity:1;fill:none;fill-opacity:1;stroke:#ffffff;stroke-width:1.70478797;stroke-linecap:butt;stroke-linejoin:miter;stroke-miterlimit:4;stroke-dasharray:none;stroke-dashoffset:0;stroke-opacity:1"
       id="path4690-9-2"
       cx="37.790142"
       cy="1025.3297"
       rx="14.81426"
       ry="14.820698" />
    <path
       style="fill:none;fill-rule:evenodd;stroke:#ffffff;stroke-width:1.99999988;stroke-linecap:butt;stroke-linejoin:miter;stroke-miterlimit:4;stroke-dasharray:none;stroke-opacity:1"
       d="m 27.718235,1025.046 6.873572,6.8087 12.923672,-12.8019"
       id="path4153-9"
       inkscape:connector-curvature="0"
       sodipodi:nodetypes="ccc" />
  </g>
</svg>
