<?xml version="1.0" encoding="UTF-8" standalone="no"?>
<!-- Created with Inkscape (http://www.inkscape.org/) -->

<svg
   xmlns:dc="http://purl.org/dc/elements/1.1/"
   xmlns:cc="http://creativecommons.org/ns#"
   xmlns:rdf="http://www.w3.org/1999/02/22-rdf-syntax-ns#"
   xmlns:svg="http://www.w3.org/2000/svg"
   xmlns="http://www.w3.org/2000/svg"
   xmlns:sodipodi="http://sodipodi.sourceforge.net/DTD/sodipodi-0.dtd"
   xmlns:inkscape="http://www.inkscape.org/namespaces/inkscape"
   width="180"
   height="60"
   viewBox="0 0 180 60"
   id="svg4528"
   version="1.1"
   inkscape:version="0.91 r13725"
   sodipodi:docname="logo.svg">
  <defs
     id="defs4530" />
  <sodipodi:namedview
     id="base"
     pagecolor="#ffffff"
     bordercolor="#666666"
     borderopacity="1.0"
     inkscape:pageopacity="0.0"
     inkscape:pageshadow="2"
     inkscape:zoom="2.8"
     inkscape:cx="150.48959"
     inkscape:cy="29.490923"
     inkscape:document-units="px"
     inkscape:current-layer="layer1"
     showgrid="true"
     units="px"
     inkscape:window-width="1600"
     inkscape:window-height="837"
     inkscape:window-x="-8"
     inkscape:window-y="-8"
     inkscape:window-maximized="1">
    <inkscape:grid
       type="xygrid"
       id="grid5092" />
  </sodipodi:namedview>
  <metadata
     id="metadata4533">
    <rdf:RDF>
      <cc:Work
         rdf:about="">
        <dc:format>image/svg+xml</dc:format>
        <dc:type
           rdf:resource="http://purl.org/dc/dcmitype/StillImage" />
        <dc:title></dc:title>
      </cc:Work>
    </rdf:RDF>
  </metadata>
  <g
     inkscape:label="Layer 1"
     inkscape:groupmode="layer"
     id="layer1"
     transform="translate(0,-992.36219)">
    <g
       style="font-style:normal;font-variant:normal;font-weight:normal;font-stretch:normal;font-size:40px;line-height:100%;font-family:Montserrat;-inkscape-font-specification:Montserrat;letter-spacing:0px;word-spacing:0px;fill:#ffffff;fill-opacity:1;stroke:none;stroke-width:1px;stroke-linecap:butt;stroke-linejoin:miter;stroke-opacity:1"
       id="text4155">
      <path
         d="m 10.291253,998.42199 c -4.3450004,0.0275 -7.3975004,3.02501 -7.3975004,7.45251 0,4.4 2.97,7.3975 7.4800004,7.3975 2.53,0 4.62,-0.9075 6.05,-2.475 l -1.6775,-1.7875 c -1.0725,1.1 -2.53,1.705 -4.125,1.705 -2.3100004,0 -4.0425004,-1.4025 -4.5375004,-3.6575 l 11.0550004,0 c 0.385,-5.28 -1.705,-8.63501 -6.8475,-8.63501 z m -4.2625004,6.32501 c 0.3575,-2.3375 1.98,-3.795 4.2900004,-3.795 2.3925,0 3.96,1.43 4.07,3.795 l -8.3600004,0 z"
         style="font-style:normal;font-variant:normal;font-weight:normal;font-stretch:normal;font-size:27.5px;line-height:100%;font-family:Montserrat;-inkscape-font-specification:'Montserrat, Normal';text-align:start;writing-mode:lr-tb;text-anchor:start;fill:#ffffff"
         id="path5133" />
      <path
         d="m 28.988245,998.42199 c -2.475,0 -4.345,0.88 -5.39,2.91501 l 0,-2.80501 -3.1625,0 0,14.63001 3.1625,0 0,-7.7825 c 0.22,-2.2825 1.7325,-3.96 4.1525,-3.9875 2.2,0 3.52,1.3475 3.52,3.5475 l 0,8.2225 3.1625,0 0,-9.1025 c 0,-3.4925 -2.035,-5.63751 -5.445,-5.63751 z"
         style="font-style:normal;font-variant:normal;font-weight:normal;font-stretch:normal;font-size:27.5px;line-height:100%;font-family:Montserrat;-inkscape-font-specification:'Montserrat, Normal';text-align:start;writing-mode:lr-tb;text-anchor:start;fill:#ffffff"
         id="path5135" />
      <path
         d="m 44.841565,1013.162 5.61,-14.63001 -3.1625,0 -4.015,11.52251 -4.07,-11.52251 -3.3,0 5.665,14.63001 3.2725,0 z"
         style="font-style:normal;font-variant:normal;font-weight:normal;font-stretch:normal;font-size:27.5px;line-height:100%;font-family:Montserrat;-inkscape-font-specification:'Montserrat, Normal';text-align:start;writing-mode:lr-tb;text-anchor:start;fill:#ffffff"
         id="path5137" />
      <path
         d="m 54.229807,992.42699 c -1.045,0 -1.8425,0.7975 -1.8425,1.925 0,1.1 0.7975,1.8975 1.8425,1.8975 1.045,0 1.8425,-0.7975 1.8425,-1.8975 0,-1.1275 -0.7975,-1.925 -1.8425,-1.925 z m 1.5675,20.73501 0,-14.63001 -3.135,0 0,14.63001 3.135,0 z"
         style="font-style:normal;font-variant:normal;font-weight:normal;font-stretch:normal;font-size:27.5px;line-height:100%;font-family:Montserrat;-inkscape-font-specification:'Montserrat, Normal';text-align:start;writing-mode:lr-tb;text-anchor:start;fill:#ffffff"
         id="path5139" />
      <path
         d="m 63.612893,998.53199 -3.1625,0 0,14.63001 3.1625,0 0,-7.645 c 0.2475,-2.5025 2.1175,-4.235 5.06,-4.07 l 0,-3.02501 c -2.31,0 -4.07,1.045 -5.06,3.02501 l 0,-2.91501 z"
         style="font-style:normal;font-variant:normal;font-weight:normal;font-stretch:normal;font-size:27.5px;line-height:100%;font-family:Montserrat;-inkscape-font-specification:'Montserrat, Normal';text-align:start;writing-mode:lr-tb;text-anchor:start;fill:#ffffff"
         id="path5141" />
      <path
         d="m 77.570003,998.42199 c -4.5375,0 -7.645,2.99751 -7.645,7.42501 0,4.4 3.1075,7.425 7.645,7.425 4.51,0 7.6175,-3.025 7.6175,-7.425 0,-4.4275 -3.1075,-7.42501 -7.6175,-7.42501 z m 0,2.72251 c 2.6125,0 4.455,1.925 4.455,4.73 0,2.8325 -1.8425,4.7575 -4.455,4.7575 -2.64,0 -4.4825,-1.925 -4.4825,-4.7575 0,-2.805 1.8425,-4.73 4.4825,-4.73 z"
         style="font-style:normal;font-variant:normal;font-weight:normal;font-stretch:normal;font-size:27.5px;line-height:100%;font-family:Montserrat;-inkscape-font-specification:'Montserrat, Normal';text-align:start;writing-mode:lr-tb;text-anchor:start;fill:#ffffff"
         id="path5143" />
      <path
         d="m 97.040003,998.42199 c -2.475,0 -4.345,0.88 -5.39,2.91501 l 0,-2.80501 -3.1625,0 0,14.63001 3.1625,0 0,-7.7825 c 0.22,-2.2825 1.7325,-3.96 4.1525,-3.9875 2.2,0 3.52,1.3475 3.52,3.5475 l 0,8.2225 3.162497,0 0,-9.1025 c 0,-3.4925 -2.035,-5.63751 -5.444997,-5.63751 z"
         style="font-style:normal;font-variant:normal;font-weight:normal;font-stretch:normal;font-size:27.5px;line-height:100%;font-family:Montserrat;-inkscape-font-specification:'Montserrat, Normal';text-align:start;writing-mode:lr-tb;text-anchor:start;fill:#ffffff"
         id="path5145" />
      <path
         d="m 125.78051,998.42199 c -2.6675,0 -4.62,1.0725 -5.555,3.52001 -0.6875,-2.22751 -2.475,-3.52001 -5.0875,-3.52001 -2.42,0 -4.29,0.88 -5.3075,2.94251 l 0,-2.83251 -3.135,0 0,14.63001 3.135,0 0,-7.2325 c 0,-2.5575 1.54,-4.4825 4.07,-4.565 2.145,0 3.4375,1.3475 3.4375,3.575 l 0,8.2225 3.1625,0 0,-7.2325 c 0,-2.5575 1.5125,-4.4825 4.015,-4.565 2.145,0 3.465,1.3475 3.465,3.575 l 0,8.2225 3.1625,0 0,-9.1025 c 0,-3.4925 -2.0075,-5.63751 -5.3625,-5.63751 z"
         style="font-style:normal;font-variant:normal;font-weight:normal;font-stretch:normal;font-size:27.5px;line-height:100%;font-family:Montserrat;-inkscape-font-specification:'Montserrat, Normal';text-align:start;writing-mode:lr-tb;text-anchor:start;fill:#ffffff"
         id="path5147" />
      <path
         d="m 141.39965,998.42199 c -4.345,0.0275 -7.3975,3.02501 -7.3975,7.45251 0,4.4 2.97,7.3975 7.48,7.3975 2.53,0 4.62,-0.9075 6.05,-2.475 l -1.6775,-1.7875 c -1.0725,1.1 -2.53,1.705 -4.125,1.705 -2.31,0 -4.0425,-1.4025 -4.5375,-3.6575 l 11.055,0 c 0.385,-5.28 -1.705,-8.63501 -6.8475,-8.63501 z m -4.2625,6.32501 c 0.3575,-2.3375 1.98,-3.795 4.29,-3.795 2.3925,0 3.96,1.43 4.07,3.795 l -8.36,0 z"
         style="font-style:normal;font-variant:normal;font-weight:normal;font-stretch:normal;font-size:27.5px;line-height:100%;font-family:Montserrat;-inkscape-font-specification:'Montserrat, Normal';text-align:start;writing-mode:lr-tb;text-anchor:start;fill:#ffffff"
         id="path5149" />
      <path
         d="m 160.09664,998.42199 c -2.475,0 -4.345,0.88 -5.39,2.91501 l 0,-2.80501 -3.1625,0 0,14.63001 3.1625,0 0,-7.7825 c 0.22,-2.2825 1.7325,-3.96 4.1525,-3.9875 2.2,0 3.52,1.3475 3.52,3.5475 l 0,8.2225 3.1625,0 0,-9.1025 c 0,-3.4925 -2.035,-5.63751 -5.445,-5.63751 z"
         style="font-style:normal;font-variant:normal;font-weight:normal;font-stretch:normal;font-size:27.5px;line-height:100%;font-family:Montserrat;-inkscape-font-specification:'Montserrat, Normal';text-align:start;writing-mode:lr-tb;text-anchor:start;fill:#ffffff"
         id="path5151" />
      <path
         d="m 177.23215,1009.807 c -0.8525,0.4125 -1.54,0.6325 -2.2,0.6325 -0.99,0 -1.5675,-0.4675 -1.5675,-1.98 l 0,-7.0125 4.3175,0 0,-2.36501 -4.3175,0 0,-4.015 -3.135,0 0,4.015 -2.0625,0 0,2.36501 2.0625,0 0,7.59 c 0,2.9975 1.8975,4.2625 4.0975,4.2625 1.2375,0 2.4475,-0.385 3.6025,-1.0725 l -0.7975,-2.42 z"
         style="font-style:normal;font-variant:normal;font-weight:normal;font-stretch:normal;font-size:27.5px;line-height:100%;font-family:Montserrat;-inkscape-font-specification:'Montserrat, Normal';text-align:start;writing-mode:lr-tb;text-anchor:start;fill:#ffffff"
         id="path5153" />
    </g>
    <g
       style="font-style:normal;font-variant:normal;font-weight:normal;font-stretch:normal;font-size:20px;line-height:100%;font-family:Montserrat;-inkscape-font-specification:Montserrat;letter-spacing:0px;word-spacing:0px;fill:#ffffff;fill-opacity:1;stroke:none;stroke-width:1px;stroke-linecap:butt;stroke-linejoin:miter;stroke-opacity:1"
       id="text4155-3">
      <path
         d="m 9.2662674,1049.7462 c -0.62,0.3 -1.12,0.46 -1.6,0.46 -0.72,0 -1.14,-0.34 -1.14,-1.44 l 0,-5.1 3.14,0 0,-1.72 -3.14,0 0,-2.92 -2.28,0 0,2.92 -1.5,0 0,1.72 1.5,0 0,5.52 c 0,2.18 1.38,3.1 2.98,3.1 0.9,0 1.78,-0.28 2.62,-0.78 l -0.58,-1.76 z"
         style="font-style:normal;font-variant:normal;font-weight:normal;font-stretch:normal;font-size:20px;line-height:100%;font-family:Montserrat;-inkscape-font-specification:'Montserrat, Normal';text-align:start;writing-mode:lr-tb;text-anchor:start;fill:#ffffff"
         id="path5118" />
      <path
         d="m 16.39408,1041.4662 c -3.3,0 -5.56,2.18 -5.56,5.4 0,3.2 2.26,5.4 5.56,5.4 3.28,0 5.54,-2.2 5.54,-5.4 0,-3.22 -2.26,-5.4 -5.54,-5.4 z m 0,1.98 c 1.9,0 3.24,1.4 3.24,3.44 0,2.06 -1.34,3.46 -3.24,3.46 -1.92,0 -3.26,-1.4 -3.26,-3.46 0,-2.04 1.34,-3.44 3.26,-3.44 z"
         style="font-style:normal;font-variant:normal;font-weight:normal;font-stretch:normal;font-size:20px;line-height:100%;font-family:Montserrat;-inkscape-font-specification:'Montserrat, Normal';text-align:start;writing-mode:lr-tb;text-anchor:start;fill:#ffffff"
         id="path5120" />
      <path
         d="m 28.89408,1041.4662 c -3.3,0 -5.56,2.18 -5.56,5.4 0,3.2 2.26,5.4 5.56,5.4 3.28,0 5.54,-2.2 5.54,-5.4 0,-3.22 -2.26,-5.4 -5.54,-5.4 z m 0,1.98 c 1.9,0 3.24,1.4 3.24,3.44 0,2.06 -1.34,3.46 -3.24,3.46 -1.92,0 -3.26,-1.4 -3.26,-3.46 0,-2.04 1.34,-3.44 3.26,-3.44 z"
         style="font-style:normal;font-variant:normal;font-weight:normal;font-stretch:normal;font-size:20px;line-height:100%;font-family:Montserrat;-inkscape-font-specification:'Montserrat, Normal';text-align:start;writing-mode:lr-tb;text-anchor:start;fill:#ffffff"
         id="path5122" />
      <path
         d="m 39.23408,1052.1862 0,-14.84 -2.3,0 0,14.84 2.3,0 z"
         style="font-style:normal;font-variant:normal;font-weight:normal;font-stretch:normal;font-size:20px;line-height:100%;font-family:Montserrat;-inkscape-font-specification:'Montserrat, Normal';text-align:start;writing-mode:lr-tb;text-anchor:start;fill:#ffffff"
         id="path5124" />
      <path
         d="m 46.932517,1047.3062 3.12,4.88 2.72,0 -4.24,-6.52 3.94,-4.12 -2.64,0 -4.7,4.76 0,-8.96 -2.3,0 0,14.84 2.3,0 0,-2.98 1.8,-1.9 z"
         style="font-style:normal;font-variant:normal;font-weight:normal;font-stretch:normal;font-size:20px;line-height:100%;font-family:Montserrat;-inkscape-font-specification:'Montserrat, Normal';text-align:start;writing-mode:lr-tb;text-anchor:start;fill:#ffffff"
         id="path5126" />
      <path
         d="m 55.78658,1037.1062 c -0.76,0 -1.34,0.58 -1.34,1.4 0,0.8 0.58,1.38 1.34,1.38 0.76,0 1.34,-0.58 1.34,-1.38 0,-0.82 -0.58,-1.4 -1.34,-1.4 z m 1.14,15.08 0,-10.64 -2.28,0 0,10.64 2.28,0 z"
         style="font-style:normal;font-variant:normal;font-weight:normal;font-stretch:normal;font-size:20px;line-height:100%;font-family:Montserrat;-inkscape-font-specification:'Montserrat, Normal';text-align:start;writing-mode:lr-tb;text-anchor:start;fill:#ffffff"
         id="path5128" />
      <path
         d="m 65.750642,1049.7462 c -0.62,0.3 -1.12,0.46 -1.6,0.46 -0.72,0 -1.14,-0.34 -1.14,-1.44 l 0,-5.1 3.14,0 0,-1.72 -3.14,0 0,-2.92 -2.28,0 0,2.92 -1.5,0 0,1.72 1.5,0 0,5.52 c 0,2.18 1.38,3.1 2.98,3.1 0.9,0 1.78,-0.28 2.62,-0.78 l -0.58,-1.76 z"
         style="font-style:normal;font-variant:normal;font-weight:normal;font-stretch:normal;font-size:20px;line-height:100%;font-family:Montserrat;-inkscape-font-specification:'Montserrat, Normal';text-align:start;writing-mode:lr-tb;text-anchor:start;fill:#ffffff"
         id="path5130" />
    </g>
    <g
       style="font-style:normal;font-variant:normal;font-weight:normal;font-stretch:normal;font-size:40px;line-height:100%;font-family:Montserrat;-inkscape-font-specification:Montserrat;letter-spacing:0px;word-spacing:0px;fill:#ffffff;fill-opacity:1;stroke:none;stroke-width:1px;stroke-linecap:butt;stroke-linejoin:miter;stroke-opacity:1"
       id="text4155-3-8">
      <path
         d="m 13.041253,1032.9296 3.1075,0 -0.0275,-9.5975 c -0.0275,-3.2175 -2.145,-5.1425 -5.9125,-5.1425 -2.7775004,0 -4.2625004,0.6325 -6.2975004,1.8425 l 1.2925,2.2 c 1.4575,-0.99 2.915,-1.485 4.3175,-1.485 2.3100004,0 3.4925004,1.1 3.4925004,2.9425 l 0,0.44 -4.4275004,0 c -3.52,0.027 -5.5275,1.7325 -5.5275,4.4 0,2.585 1.98,4.5375 5.1425,4.5375 2.1175004,0 3.7950004,-0.6325 4.8400004,-1.925 l 0,1.7875 z m -4.1800004,-2.365 c -1.76,0 -2.8325,-0.8525 -2.8325,-2.1725 0,-1.4025 0.9625,-1.9525 3.025,-1.9525 l 3.9600004,0 0,1.3475 c -0.165,1.595 -1.8975,2.7775 -4.1525004,2.7775 z"
         style="font-style:normal;font-variant:normal;font-weight:normal;font-stretch:normal;font-size:27.5px;line-height:100%;font-family:Montserrat;-inkscape-font-specification:'Montserrat, Normal';text-align:start;writing-mode:lr-tb;text-anchor:start;fill:#ffffff"
         id="path5097" />
      <path
         d="m 24.754534,1018.1621 c -2.805,0 -5.39,1.265 -5.39,4.235 -0.0275,5.28 7.6725,3.6025 7.6725,6.6 0,1.1 -1.045,1.5675 -2.3925,1.5675 -1.595,0 -3.63,-0.6875 -4.895,-1.815 l -1.1275,2.255 c 1.4575,1.32 3.74,2.035 5.885,2.035 2.9425,0 5.61,-1.3475 5.61,-4.345 0.0275,-5.3075 -7.755,-3.85 -7.755,-6.545 0,-1.045 0.9075,-1.4575 2.145,-1.4575 1.2925,0 2.915,0.495 4.2075,1.2925 l 1.155,-2.3375 c -1.32,-0.935 -3.2725,-1.485 -5.115,-1.485 z"
         style="font-style:normal;font-variant:normal;font-weight:normal;font-stretch:normal;font-size:27.5px;line-height:100%;font-family:Montserrat;-inkscape-font-specification:'Montserrat, Normal';text-align:start;writing-mode:lr-tb;text-anchor:start;fill:#ffffff"
         id="path5099" />
      <path
         d="m 37.69887,1018.1621 c -2.805,0 -5.39,1.265 -5.39,4.235 -0.0275,5.28 7.6725,3.6025 7.6725,6.6 0,1.1 -1.045,1.5675 -2.3925,1.5675 -1.595,0 -3.63,-0.6875 -4.895,-1.815 l -1.1275,2.255 c 1.4575,1.32 3.74,2.035 5.885,2.035 2.9425,0 5.61,-1.3475 5.61,-4.345 0.0275,-5.3075 -7.755,-3.85 -7.755,-6.545 0,-1.045 0.9075,-1.4575 2.145,-1.4575 1.2925,0 2.915,0.495 4.2075,1.2925 l 1.155,-2.3375 c -1.32,-0.935 -3.2725,-1.485 -5.115,-1.485 z"
         style="font-style:normal;font-variant:normal;font-weight:normal;font-stretch:normal;font-size:27.5px;line-height:100%;font-family:Montserrat;-inkscape-font-specification:'Montserrat, Normal';text-align:start;writing-mode:lr-tb;text-anchor:start;fill:#ffffff"
         id="path5101" />
      <path
         d="m 52.293206,1018.1896 c -4.345,0.027 -7.3975,3.025 -7.3975,7.4525 0,4.4 2.97,7.3975 7.48,7.3975 2.53,0 4.62,-0.9075 6.05,-2.475 l -1.6775,-1.7875 c -1.0725,1.1 -2.53,1.705 -4.125,1.705 -2.31,0 -4.0425,-1.4025 -4.5375,-3.6575 l 11.055,0 c 0.385,-5.28 -1.705,-8.635 -6.8475,-8.635 z m -4.2625,6.325 c 0.3575,-2.3375 1.98,-3.795 4.29,-3.795 2.3925,0 3.96,1.43 4.07,3.795 l -8.36,0 z"
         style="font-style:normal;font-variant:normal;font-weight:normal;font-stretch:normal;font-size:27.5px;line-height:100%;font-family:Montserrat;-inkscape-font-specification:'Montserrat, Normal';text-align:start;writing-mode:lr-tb;text-anchor:start;fill:#ffffff"
         id="path5103" />
      <path
         d="m 66.810198,1018.1621 c -2.805,0 -5.39,1.265 -5.39,4.235 -0.0275,5.28 7.6725,3.6025 7.6725,6.6 0,1.1 -1.045,1.5675 -2.3925,1.5675 -1.595,0 -3.63,-0.6875 -4.895,-1.815 l -1.1275,2.255 c 1.4575,1.32 3.74,2.035 5.885,2.035 2.9425,0 5.61,-1.3475 5.61,-4.345 0.0275,-5.3075 -7.755,-3.85 -7.755,-6.545 0,-1.045 0.9075,-1.4575 2.145,-1.4575 1.2925,0 2.915,0.495 4.2075,1.2925 l 1.155,-2.3375 c -1.32,-0.935 -3.2725,-1.485 -5.115,-1.485 z"
         style="font-style:normal;font-variant:normal;font-weight:normal;font-stretch:normal;font-size:27.5px;line-height:100%;font-family:Montserrat;-inkscape-font-specification:'Montserrat, Normal';text-align:start;writing-mode:lr-tb;text-anchor:start;fill:#ffffff"
         id="path5105" />
      <path
         d="m 79.754534,1018.1621 c -2.805,0 -5.39,1.265 -5.39,4.235 -0.0275,5.28 7.6725,3.6025 7.6725,6.6 0,1.1 -1.045,1.5675 -2.3925,1.5675 -1.595,0 -3.63,-0.6875 -4.895,-1.815 l -1.1275,2.255 c 1.4575,1.32 3.74,2.035 5.885,2.035 2.9425,0 5.61,-1.3475 5.61,-4.345 0.0275,-5.3075 -7.755,-3.85 -7.755,-6.545 0,-1.045 0.9075,-1.4575 2.145,-1.4575 1.2925,0 2.915,0.495 4.2075,1.2925 l 1.155,-2.3375 c -1.32,-0.935 -3.2725,-1.485 -5.115,-1.485 z"
         style="font-style:normal;font-variant:normal;font-weight:normal;font-stretch:normal;font-size:27.5px;line-height:100%;font-family:Montserrat;-inkscape-font-specification:'Montserrat, Normal';text-align:start;writing-mode:lr-tb;text-anchor:start;fill:#ffffff"
         id="path5107" />
      <path
         d="m 107.41137,1018.1896 c -2.6675,0 -4.62,1.0725 -5.555,3.52 -0.6875,-2.2275 -2.475,-3.52 -5.0875,-3.52 -2.42,0 -4.29,0.88 -5.3075,2.9425 l 0,-2.8325 -3.135,0 0,14.63 3.135,0 0,-7.2325 c 0,-2.5575 1.54,-4.4825 4.07,-4.565 2.145,0 3.4375,1.3475 3.4375,3.575 l 0,8.2225 3.1625,0 0,-7.2325 c 0,-2.5575 1.5125,-4.4825 4.015,-4.565 2.145,0 3.465,1.3475 3.465,3.575 l 0,8.2225 3.1625,0 0,-9.1025 c 0,-3.4925 -2.0075,-5.6375 -5.3625,-5.6375 z"
         style="font-style:normal;font-variant:normal;font-weight:normal;font-stretch:normal;font-size:27.5px;line-height:100%;font-family:Montserrat;-inkscape-font-specification:'Montserrat, Normal';text-align:start;writing-mode:lr-tb;text-anchor:start;fill:#ffffff"
         id="path5109" />
      <path
         d="m 123.03051,1018.1896 c -4.345,0.027 -7.3975,3.025 -7.3975,7.4525 0,4.4 2.97,7.3975 7.48,7.3975 2.53,0 4.62,-0.9075 6.05,-2.475 l -1.6775,-1.7875 c -1.0725,1.1 -2.53,1.705 -4.125,1.705 -2.31,0 -4.0425,-1.4025 -4.5375,-3.6575 l 11.055,0 c 0.385,-5.28 -1.705,-8.635 -6.8475,-8.635 z m -4.2625,6.325 c 0.3575,-2.3375 1.98,-3.795 4.29,-3.795 2.3925,0 3.96,1.43 4.07,3.795 l -8.36,0 z"
         style="font-style:normal;font-variant:normal;font-weight:normal;font-stretch:normal;font-size:27.5px;line-height:100%;font-family:Montserrat;-inkscape-font-specification:'Montserrat, Normal';text-align:start;writing-mode:lr-tb;text-anchor:start;fill:#ffffff"
         id="path5111" />
      <path
         d="m 141.7275,1018.1896 c -2.475,0 -4.345,0.88 -5.39,2.915 l 0,-2.805 -3.1625,0 0,14.63 3.1625,0 0,-7.7825 c 0.22,-2.2825 1.7325,-3.96 4.1525,-3.9875 2.2,0 3.52,1.3475 3.52,3.5475 l 0,8.2225 3.1625,0 0,-9.1025 c 0,-3.4925 -2.035,-5.6375 -5.445,-5.6375 z"
         style="font-style:normal;font-variant:normal;font-weight:normal;font-stretch:normal;font-size:27.5px;line-height:100%;font-family:Montserrat;-inkscape-font-specification:'Montserrat, Normal';text-align:start;writing-mode:lr-tb;text-anchor:start;fill:#ffffff"
         id="path5113" />
      <path
         d="m 158.86301,1029.5746 c -0.8525,0.4125 -1.54,0.6325 -2.2,0.6325 -0.99,0 -1.5675,-0.4675 -1.5675,-1.98 l 0,-7.0125 4.3175,0 0,-2.365 -4.3175,0 0,-4.015 -3.135,0 0,4.015 -2.0625,0 0,2.365 2.0625,0 0,7.59 c 0,2.9975 1.8975,4.2625 4.0975,4.2625 1.2375,0 2.4475,-0.385 3.6025,-1.0725 l -0.7975,-2.42 z"
         style="font-style:normal;font-variant:normal;font-weight:normal;font-stretch:normal;font-size:27.5px;line-height:100%;font-family:Montserrat;-inkscape-font-specification:'Montserrat, Normal';text-align:start;writing-mode:lr-tb;text-anchor:start;fill:#ffffff"
         id="path5115" />
    </g>
  </g>
</svg>
